<svg width="383" height="315" viewBox="0 0 383 315" fill="none" xmlns="http://www.w3.org/2000/svg">
<rect width="383" height="315" fill="#5485AE"/>
<path d="M83.14 148L74.94 118.4H79.28L86.68 146.04H85.62L93.34 118.4H98.2L105.78 146.04H104.8L112.3 118.4H116.36L108.18 148H102.68L95.18 121.04H96.28L88.64 148H83.14ZM125.234 148V136.06L126.114 139.04L116.074 124.2H120.614L128.074 135.2H126.794L134.174 124.2H138.394L128.574 139.04L129.454 136.1V148H125.234ZM147.626 148.22C146.6 148.22 145.526 148.187 144.406 148.12C143.3 148.067 142.2 147.98 141.106 147.86V124.66C141.84 124.513 142.613 124.387 143.426 124.28C144.253 124.173 145.086 124.093 145.926 124.04C146.78 123.973 147.6 123.94 148.386 123.94C152.8 123.94 156.126 124.933 158.366 126.92C160.606 128.893 161.726 131.96 161.726 136.12C161.726 138.933 161.2 141.233 160.146 143.02C159.093 144.793 157.52 146.107 155.426 146.96C153.346 147.8 150.746 148.22 147.626 148.22ZM148.606 144.88C150.566 144.88 152.2 144.587 153.506 144C154.813 143.4 155.793 142.46 156.446 141.18C157.1 139.887 157.426 138.193 157.426 136.1C157.426 134.02 157.1 132.333 156.446 131.04C155.806 129.733 154.84 128.78 153.546 128.18C152.253 127.567 150.64 127.26 148.706 127.26C148.146 127.26 147.56 127.287 146.946 127.34C146.346 127.393 145.806 127.467 145.326 127.56V144.72C145.86 144.787 146.393 144.833 146.926 144.86C147.473 144.873 148.033 144.88 148.606 144.88ZM163.776 148V145.74L177.096 126.8L177.216 127.58H163.956V124.2H181.976V126.46L168.656 145.4L168.536 144.62H182.176V148H163.776ZM186.653 148V124.2H190.873V148H186.653ZM194.598 148L203.178 124.2H209.278L217.878 148H213.678L205.938 125.94H206.458L198.738 148H194.598ZM199.818 141.06L200.738 137.84H211.698L212.618 141.06H199.818ZM221.614 148V124.2H225.834V144.62H237.854V148H221.614ZM218.654 139.66L218.634 136.66L231.214 129.18V132.16L218.654 139.66Z" fill="white"/>
<path d="M95.2 191L83.96 175.88L94.5 161.4H99.06L88.16 176.36L88.22 175.2L99.9 191H95.2ZM77.16 191V161.4H81.4V191H77.16ZM80.76 177.72V173.94H85.78V177.72H80.76ZM111.844 191.3C109.59 191.3 107.624 190.867 105.944 190C104.264 189.133 102.957 187.8 102.024 186C101.09 184.2 100.624 181.907 100.624 179.12C100.624 176.32 101.09 174.02 102.024 172.22C102.957 170.407 104.264 169.067 105.944 168.2C107.637 167.333 109.604 166.9 111.844 166.9C114.11 166.9 116.084 167.333 117.764 168.2C119.457 169.067 120.764 170.407 121.684 172.22C122.617 174.02 123.084 176.32 123.084 179.12C123.084 181.907 122.617 184.2 121.684 186C120.75 187.8 119.437 189.133 117.744 190C116.064 190.867 114.097 191.3 111.844 191.3ZM111.844 187.98C113.27 187.98 114.504 187.693 115.544 187.12C116.584 186.533 117.384 185.6 117.944 184.32C118.504 183.027 118.784 181.32 118.784 179.2C118.784 177.013 118.497 175.26 117.924 173.94C117.364 172.62 116.564 171.673 115.524 171.1C114.484 170.513 113.257 170.22 111.844 170.22C110.444 170.22 109.224 170.507 108.184 171.08C107.157 171.653 106.364 172.587 105.804 173.88C105.244 175.173 104.964 176.88 104.964 179C104.964 181.2 105.237 182.96 105.784 184.28C106.344 185.587 107.137 186.533 108.164 187.12C109.204 187.693 110.43 187.98 111.844 187.98ZM128.139 191V167.2H133.159L141.439 184.22H140.799L148.939 167.2H153.959V191H150.059V170.76H150.959L142.799 187.62H139.299L130.939 170.78H132.039V191H128.139ZM170.342 191.3C168.036 191.3 166.142 190.94 164.662 190.22C163.182 189.5 162.082 188.42 161.362 186.98C160.656 185.54 160.302 183.72 160.302 181.52V167.2H164.522V181.9C164.522 183.98 164.996 185.507 165.942 186.48C166.889 187.44 168.356 187.92 170.342 187.92C172.356 187.92 173.829 187.44 174.762 186.48C175.709 185.507 176.182 183.98 176.182 181.9V167.2H180.302V181.52C180.302 183.72 179.949 185.54 179.242 186.98C178.549 188.42 177.462 189.5 175.982 190.22C174.516 190.94 172.636 191.3 170.342 191.3ZM186.575 191V167.2H190.775L204.015 186.02H203.255V167.2H207.195V191H202.975L189.755 172.18H190.495V191H186.575ZM213.606 191V167.2H217.826V191H213.606ZM239.551 191L230.211 178.86L238.971 167.2H243.491L234.391 179.32L234.451 178.22L244.211 191H239.551ZM224.231 191V167.2H228.451V191H224.231ZM227.811 180.6V177.04H231.971V180.6H227.811ZM242.606 191L251.186 167.2H257.286L265.886 191H261.686L253.946 168.94H254.466L246.746 191H242.606ZM247.826 184.06L248.746 180.84H259.706L260.626 184.06H247.826ZM279.976 191.3C277.403 191.3 275.196 190.893 273.356 190.08C271.516 189.267 270.096 187.967 269.096 186.18C268.109 184.393 267.616 182.047 267.616 179.14C267.616 176.367 268.109 174.073 269.096 172.26C270.096 170.447 271.536 169.1 273.416 168.22C275.309 167.34 277.589 166.9 280.256 166.9C281.203 166.9 282.129 166.953 283.036 167.06C283.956 167.153 284.836 167.307 285.676 167.52V170.94C284.836 170.727 283.989 170.573 283.136 170.48C282.296 170.373 281.429 170.32 280.536 170.32C278.669 170.32 277.103 170.613 275.836 171.2C274.583 171.773 273.636 172.707 272.996 174C272.369 175.28 272.056 176.98 272.056 179.1C272.056 181.287 272.369 183.02 272.996 184.3C273.636 185.58 274.569 186.5 275.796 187.06C277.036 187.607 278.549 187.88 280.336 187.88C281.243 187.88 282.129 187.813 282.996 187.68C283.863 187.547 284.756 187.34 285.676 187.06V190.48C284.863 190.733 283.963 190.933 282.976 191.08C282.003 191.227 281.003 191.3 279.976 191.3ZM289.619 196.58L286.899 194.82C287.592 193.94 288.146 193.08 288.559 192.24C288.972 191.4 289.272 190.507 289.459 189.56C289.646 188.6 289.739 187.5 289.739 186.26V167.2H293.959V186.38C293.959 187.713 293.812 188.947 293.519 190.08C293.239 191.2 292.779 192.287 292.139 193.34C291.499 194.393 290.659 195.473 289.619 196.58ZM300.364 191V167.2H304.584V191H300.364Z" fill="white"/>
<path d="M355.814 165.825C365.47 182.884 327.068 186.42 327.068 186.42C327.068 186.42 338.976 170.461 331.15 158.213C323.324 145.966 266.371 85.6864 225.058 95.3684C183.745 105.051 346.158 148.766 355.814 165.825Z" fill="white"/>
</svg>
